<?xml version="1.0" standalone="no"?>
<!DOCTYPE svg PUBLIC "-//W3C//DTD SVG 20010904//EN"
 "http://www.w3.org/TR/2001/REC-SVG-20010904/DTD/svg10.dtd">
<svg version="1.0" xmlns="http://www.w3.org/2000/svg"
 width="175.000000pt" height="135.000000pt" viewBox="0 0 175.000000 135.000000"
 preserveAspectRatio="xMidYMid meet">

<g transform="translate(0.000000,135.000000) scale(0.100000,-0.100000)"
fill="#fff" stroke="none">
<path d="M1505 1173 c-78 -17 -211 -87 -310 -162 -130 -99 -317 -301 -434
-468 -24 -35 -47 -63 -50 -63 -4 0 -31 36 -60 80 -122 182 -210 212 -325 108
l-41 -37 46 -43 c87 -81 171 -218 224 -363 27 -74 32 -78 86 -71 94 13 102 19
164 129 181 319 442 638 700 854 47 40 47 47 0 36z"/>
</g>
</svg>
